# Blender 4.5.3 LTS
# www.blender.org
mtllib Keycard.mtl
o Cube
v 0.059570 -1.000000 0.703996
v 0.059570 -0.933932 0.753797
v 0.063784 -0.933932 0.703996
v 0.059570 0.933932 0.753797
v 0.059570 1.000000 0.703996
v 0.063784 0.933932 0.703996
v 0.059570 -1.000000 -0.703996
v 0.063784 -0.933932 -0.703996
v 0.059570 -0.933932 -0.753797
v 0.059570 1.000000 -0.703996
v 0.059570 0.933932 -0.753797
v 0.063784 0.933932 -0.703996
v -0.059570 -1.000000 0.703996
v -0.063784 -0.933932 0.703996
v -0.059570 -0.933932 0.753797
v -0.059570 1.000000 0.703996
v -0.059570 0.933932 0.753797
v -0.063784 0.933932 0.703996
v -0.059570 -1.000000 -0.703996
v -0.059570 -0.933932 -0.753797
v -0.063784 -0.933932 -0.703996
v -0.059570 1.000000 -0.703996
v -0.063784 0.933932 -0.703996
v -0.059570 0.933932 -0.753797
vn 0.9944 -0.0634 0.0841
vn 0.9944 0.0634 0.0841
vn 0.9944 -0.0634 -0.0841
vn 0.9944 0.0634 -0.0841
vn -0.9944 -0.0634 0.0841
vn -0.9944 0.0634 0.0841
vn -0.9944 -0.0634 -0.0841
vn -0.9944 0.0634 -0.0841
vn 0.9980 -0.0637 -0.0000
vn 0.9964 -0.0000 0.0843
vn 0.9980 0.0637 -0.0000
vn 0.9964 -0.0000 -0.0843
vn -0.0000 -0.6019 -0.7985
vn -0.0000 0.6019 -0.7985
vn -0.9964 -0.0000 -0.0843
vn -0.9980 -0.0637 -0.0000
vn -0.9980 0.0637 -0.0000
vn -0.9964 -0.0000 0.0843
vn -0.0000 -0.6019 0.7985
vn -0.0000 0.6019 0.7985
vn -0.0000 -1.0000 -0.0000
vn 1.0000 -0.0000 -0.0000
vn -0.0000 -0.0000 1.0000
vn -0.0000 1.0000 -0.0000
vn -0.0000 -0.0000 -1.0000
vn -1.0000 -0.0000 -0.0000
vt -0.000000 0.252575
vt 0.012203 0.243947
vt 0.012203 0.261204
vt 0.357195 0.243947
vt 0.369398 0.252575
vt 0.357195 0.261204
vt 0.747425 0.738796
vt 0.738796 0.726593
vt 0.756053 0.726593
vt 0.747425 0.369398
vt 0.756053 0.381601
vt 0.738796 0.381601
vt 0.621973 0.874549
vt 0.613345 0.862346
vt 0.630602 0.862346
vt 0.621973 0.505151
vt 0.630602 0.517353
vt 0.613345 0.517353
vt 0.991372 0.369398
vt 0.982743 0.357195
vt 1.000000 0.357195
vt 0.991372 0.000000
vt 1.000000 0.012203
vt 0.982743 0.012203
vt 0.726593 0.012203
vt 0.381601 0.012203
vt 0.381601 0.000000
vt 0.726593 0.000000
vt 0.012203 0.862346
vt 0.357195 0.862346
vt 0.357195 0.874549
vt 0.012203 0.874549
vt 0.726593 0.357195
vt 0.738796 0.012203
vt 0.738796 0.357195
vt 0.357195 0.517353
vt 0.369398 0.517353
vt 0.369398 0.862346
vt 0.381601 0.357195
vt 0.726593 0.369398
vt 0.381601 0.369398
vt 0.012203 0.517353
vt 0.012203 0.505151
vt 0.357195 0.505151
vt 0.369398 0.357195
vt 0.369398 0.012203
vt 0.000000 0.862346
vt 0.000000 0.517353
vt 0.357195 0.505151
vt 0.012203 0.505151
vt 0.012203 0.000000
vt 0.357195 0.000000
vt 0.738796 0.357195
vt 0.738796 0.012203
vt 0.369398 0.862346
vt 0.369398 0.517353
s 0
f 1/1/1 3/3/1 2/2/1
f 4/4/2 6/6/2 5/5/2
f 7/7/3 9/9/3 8/8/3
f 10/10/4 12/12/4 11/11/4
f 13/13/5 15/15/5 14/14/5
f 16/16/6 18/18/6 17/17/6
f 19/19/7 21/21/7 20/20/7
f 22/22/8 24/24/8 23/23/8
f 7/25/9 8/28/9 3/27/9 1/26/9
f 2/2/10 3/3/10 6/6/10 4/4/10
f 5/29/11 6/32/11 12/31/11 10/30/11
f 11/11/12 12/12/12 8/8/12 9/9/12
f 19/33/13 20/35/13 9/34/13 7/25/13
f 10/30/14 11/38/14 24/37/14 22/36/14
f 23/23/15 24/24/15 20/20/15 21/21/15
f 13/39/16 14/41/16 21/40/16 19/33/16
f 22/36/17 23/44/17 18/43/17 16/42/17
f 17/17/18 18/18/18 14/14/18 15/15/18
f 1/26/19 2/46/19 15/45/19 13/39/19
f 16/42/20 17/48/20 4/47/20 5/29/20
f 7/25/21 1/26/21 13/39/21 19/33/21
f 3/3/22 8/50/22 12/49/22 6/6/22
f 15/51/23 2/2/23 4/4/23 17/52/23
f 22/36/24 16/42/24 5/29/24 10/30/24
f 9/53/25 20/20/25 24/24/25 11/54/25
f 21/55/26 14/14/26 18/18/26 23/56/26
