# Blender 4.5.3 LTS
# www.blender.org
mtllib HeavenPillar.mtl
o Cylinder
v 0.000000 0.185813 -0.318827
v 0.000000 4.132864 -0.318827
v 0.187402 0.185813 -0.257937
v 0.187402 4.132864 -0.257937
v 0.303223 0.185813 -0.098523
v 0.303223 4.132864 -0.098523
v 0.303223 0.185813 0.098523
v 0.303223 4.132864 0.098523
v 0.187402 0.185813 0.257937
v 0.187402 4.132864 0.257937
v 0.000000 0.185813 0.318827
v 0.000000 4.132864 0.318827
v -0.187402 0.185813 0.257937
v -0.187402 4.132864 0.257937
v -0.303223 0.185813 0.098523
v -0.303223 4.132864 0.098523
v -0.303223 0.185813 -0.098523
v -0.303223 4.132864 -0.098523
v -0.187402 0.185813 -0.257937
v -0.187402 4.132864 -0.257937
vn 0.3090 -0.0000 -0.9511
vn 0.8090 -0.0000 -0.5878
vn 1.0000 -0.0000 -0.0000
vn 0.8090 -0.0000 0.5878
vn 0.3090 -0.0000 0.9511
vn -0.3090 -0.0000 0.9511
vn -0.8090 -0.0000 0.5878
vn -1.0000 -0.0000 -0.0000
vn -0.0000 1.0000 -0.0000
vn -0.8090 -0.0000 -0.5878
vn -0.3090 -0.0000 -0.9511
vn -0.0000 -1.0000 -0.0000
vt 0.800264 0.500000
vt 0.800264 0.250000
vt 0.877518 0.250000
vt 0.877518 0.500000
vt 0.940018 0.250000
vt 0.940018 0.500000
vt 0.809017 1.000000
vt 0.809017 0.750000
vt 0.886271 0.750000
vt 0.886271 1.000000
vt 0.750000 0.250000
vt 0.750000 0.000000
vt 0.812500 0.000000
vt 0.812500 0.250000
vt 0.889754 0.000000
vt 0.889754 0.250000
vt 0.952254 0.000000
vt 0.952254 0.250000
vt 0.404509 1.000000
vt 0.404509 0.750000
vt 0.467009 0.750000
vt 0.467009 1.000000
vt 0.544263 0.750000
vt 0.544263 1.000000
vt 0.545409 0.476127
vt 0.500000 0.413627
vt 0.500000 0.336373
vt 0.545409 0.273873
vt 0.618882 0.250000
vt 0.692355 0.273873
vt 0.737764 0.336373
vt 0.737764 0.413627
vt 0.692355 0.476127
vt 0.618882 0.500000
vt 0.606763 0.750000
vt 0.606763 1.000000
vt 0.737764 0.500000
vt 0.737764 0.250000
vt 0.250000 0.663627
vt 0.250000 0.586373
vt 0.295409 0.523873
vt 0.368882 0.500000
vt 0.442355 0.523873
vt 0.487764 0.586373
vt 0.487764 0.663627
vt 0.442355 0.726127
vt 0.368882 0.750000
vt 0.295409 0.726127
s 0
f 1/1/1 2/2/1 4/3/1 3/4/1
f 3/4/2 4/3/2 6/5/2 5/6/2
f 5/7/3 6/8/3 8/9/3 7/10/3
f 7/11/4 8/12/4 10/13/4 9/14/4
f 9/14/5 10/13/5 12/15/5 11/16/5
f 11/16/6 12/15/6 14/17/6 13/18/6
f 13/19/7 14/20/7 16/21/7 15/22/7
f 15/22/8 16/21/8 18/23/8 17/24/8
f 4/25/9 2/26/9 20/27/9 18/28/9 16/29/9 14/30/9 12/31/9 10/32/9 8/33/9 6/34/9
f 17/24/10 18/23/10 20/35/10 19/36/10
f 19/37/11 20/38/11 2/2/11 1/1/11
f 1/39/12 3/40/12 5/41/12 7/42/12 9/43/12 11/44/12 13/45/12 15/46/12 17/47/12 19/48/12
o Cube
v -0.559721 -0.260208 0.559721
v -0.559721 0.260208 0.559721
v -0.559721 -0.260208 -0.559721
v -0.559721 0.260208 -0.559721
v 0.559721 -0.260208 0.559721
v 0.559721 0.260208 0.559721
v 0.559721 -0.260208 -0.559721
v 0.559721 0.260208 -0.559721
vn -1.0000 -0.0000 -0.0000
vn -0.0000 -0.0000 -1.0000
vn 1.0000 -0.0000 -0.0000
vn -0.0000 -0.0000 1.0000
vn -0.0000 -1.0000 -0.0000
vn -0.0000 1.0000 -0.0000
vt 0.250000 0.250000
vt 0.000000 0.250000
vt 0.000000 0.000000
vt 0.250000 0.000000
vt 0.250000 0.500000
vt 0.000000 0.500000
vt 0.000000 0.250000
vt 0.250000 0.250000
vt 0.500000 0.250000
vt 0.250000 0.250000
vt 0.250000 0.000000
vt 0.500000 0.000000
vt 0.500000 0.500000
vt 0.250000 0.500000
vt 0.250000 0.250000
vt 0.500000 0.250000
vt 0.250000 0.500000
vt 0.250000 0.750000
vt 0.000000 0.750000
vt 0.000000 0.500000
vt 0.750000 0.000000
vt 0.750000 0.250000
vt 0.500000 0.250000
vt 0.500000 0.000000
s 0
f 21/49/13 22/50/13 24/51/13 23/52/13
f 23/53/14 24/54/14 28/55/14 27/56/14
f 27/57/15 28/58/15 26/59/15 25/60/15
f 25/61/16 26/62/16 22/63/16 21/64/16
f 23/65/17 27/66/17 25/67/17 21/68/17
f 28/69/18 24/70/18 22/71/18 26/72/18
o Cylinder.001
v 0.000000 4.238485 -0.440138
v 0.000000 3.862237 -0.440138
v 0.258707 4.238485 -0.356079
v 0.258707 3.862237 -0.356079
v 0.418596 4.238485 -0.136010
v 0.418596 3.862237 -0.136010
v 0.418596 4.238485 0.136010
v 0.418596 3.862237 0.136010
v 0.258707 4.238485 0.356079
v 0.258707 3.862237 0.356079
v 0.000000 4.238485 0.440138
v 0.000000 3.862237 0.440138
v -0.258707 4.238485 0.356079
v -0.258707 3.862237 0.356079
v -0.418596 4.238485 0.136010
v -0.418596 3.862237 0.136010
v -0.418596 4.238485 -0.136010
v -0.418596 3.862237 -0.136010
v -0.258707 4.238485 -0.356079
v -0.258707 3.862237 -0.356079
vn 0.3090 -0.0000 -0.9511
vn 0.8090 -0.0000 -0.5878
vn 1.0000 -0.0000 -0.0000
vn 0.8090 -0.0000 0.5878
vn 0.3090 -0.0000 0.9511
vn -0.3090 -0.0000 0.9511
vn -0.8090 -0.0000 0.5878
vn -1.0000 -0.0000 -0.0000
vn -0.0000 -1.0000 -0.0000
vn -0.8090 -0.0000 -0.5878
vn -0.3090 -0.0000 -0.9511
vn -0.0000 1.0000 -0.0000
vt 0.062500 1.000000
vt 0.062500 0.750000
vt 0.139754 0.750000
vt 0.139754 1.000000
vt 0.202254 0.750000
vt 0.202254 1.000000
vt 0.886271 1.000000
vt 0.886271 0.750000
vt 0.963525 0.750000
vt 0.963525 1.000000
vt 0.202254 1.000000
vt 0.202254 0.750000
vt 0.264754 0.750000
vt 0.264754 1.000000
vt 0.342008 0.750000
vt 0.342008 1.000000
vt 0.404508 0.750000
vt 0.404508 1.000000
vt 0.606763 1.000000
vt 0.606763 0.750000
vt 0.669263 0.750000
vt 0.669263 1.000000
vt 0.746517 0.750000
vt 0.746517 1.000000
vt 0.533173 0.726127
vt 0.487764 0.663627
vt 0.487764 0.586373
vt 0.533173 0.523873
vt 0.606646 0.500000
vt 0.680119 0.523873
vt 0.725528 0.586373
vt 0.725528 0.663627
vt 0.680119 0.726127
vt 0.606646 0.750000
vt 0.809017 0.750000
vt 0.809017 1.000000
vt 0.000000 1.000000
vt 0.000000 0.750000
vt 0.725528 0.663627
vt 0.725528 0.586373
vt 0.770937 0.523873
vt 0.844410 0.500000
vt 0.917883 0.523873
vt 0.963292 0.586373
vt 0.963292 0.663627
vt 0.917883 0.726127
vt 0.844410 0.750000
vt 0.770937 0.726127
s 0
f 29/73/19 31/76/19 32/75/19 30/74/19
f 31/76/20 33/78/20 34/77/20 32/75/20
f 33/79/21 35/82/21 36/81/21 34/80/21
f 35/83/22 37/86/22 38/85/22 36/84/22
f 37/86/23 39/88/23 40/87/23 38/85/23
f 39/88/24 41/90/24 42/89/24 40/87/24
f 41/91/25 43/94/25 44/93/25 42/92/25
f 43/94/26 45/96/26 46/95/26 44/93/26
f 32/97/27 34/106/27 36/105/27 38/104/27 40/103/27 42/102/27 44/101/27 46/100/27 48/99/27 30/98/27
f 45/96/28 47/108/28 48/107/28 46/95/28
f 47/109/29 29/73/29 30/74/29 48/110/29
f 29/111/30 47/120/30 45/119/30 43/118/30 41/117/30 39/116/30 37/115/30 35/114/30 33/113/30 31/112/30
